<svg width="80" height="80" viewBox="0 0 80 80" fill="none" xmlns="http://www.w3.org/2000/svg">
  <!-- Outer rim with Moroccan pattern -->
  <circle cx="40" cy="40" r="38" fill="#F5E4D2" stroke="#7C4A27" stroke-width="2"/>

  <!-- Inner rim pattern -->
  <circle cx="40" cy="40" r="34" fill="none" stroke="#E0723E" stroke-width="0.5" opacity="0.6"/>
  <circle cx="40" cy="40" r="32" fill="none" stroke="#D34A2F" stroke-width="0.3" opacity="0.4"/>

  <!-- Center plate surface with subtle gradient -->
  <defs>
    <radialGradient id="plateGradient" cx="50%" cy="50%" r="50%">
      <stop offset="0%" stop-color="#FFF6ED"/>
      <stop offset="70%" stop-color="#F5E4D2"/>
      <stop offset="100%" stop-color="#E7D7C3"/>
    </radialGradient>

    <!-- Specular highlight for hover state -->
    <linearGradient id="specular" x1="0%" y1="0%" x2="100%" y2="100%">
      <stop offset="0%" stop-color="rgba(255,255,255,0.8)"/>
      <stop offset="50%" stop-color="rgba(255,255,255,0.3)"/>
      <stop offset="100%" stop-color="rgba(255,255,255,0)"/>
    </linearGradient>
  </defs>

  <circle cx="40" cy="40" r="30" fill="url(#plateGradient)"/>

  <!-- Moroccan decorative pattern (subtle) -->
  <g opacity="0.15" stroke="#7C4A27" stroke-width="0.5" fill="none">
    <path d="M 40 20 L 44 24 L 40 28 L 36 24 Z"/>
    <path d="M 52 40 L 56 44 L 52 48 L 48 44 Z"/>
    <path d="M 40 52 L 44 56 L 40 60 L 36 56 Z"/>
    <path d="M 28 40 L 32 44 L 28 48 L 24 44 Z"/>
  </g>

  <!-- Specular highlight layer (hidden by default, shown on hover) -->
  <g id="highlight" opacity="0">
    <ellipse cx="45" cy="35" rx="15" ry="10" fill="url(#specular)" transform="rotate(-45 45 35)"/>
  </g>

  <!-- Shadow layer for depth -->
  <defs>
    <filter id="shadow" x="-50%" y="-50%" width="200%" height="200%">
      <feGaussianBlur in="SourceAlpha" stdDeviation="2"/>
      <feOffset dx="0" dy="2" result="offsetblur"/>
      <feComponentTransfer>
        <feFuncA type="linear" slope="0.3"/>
      </feComponentTransfer>
      <feMerge>
        <feMergeNode/>
        <feMergeNode in="SourceGraphic"/>
      </feMerge>
    </filter>
  </defs>
</svg>
